<?xml version="1.0" encoding="utf-8"?>
<!-- Generator: Adobe Illustrator 22.0.0, SVG Export Plug-In . SVG Version: 6.00 Build 0)  -->
<svg version="1.1" id="Layer_1" xmlns="http://www.w3.org/2000/svg" xmlns:xlink="http://www.w3.org/1999/xlink" x="0px" y="0px"
	 width="129px" height="204.4px" viewBox="0 0 129 204.4" style="enable-background:new 0 0 129 204.4;" xml:space="preserve">
<style type="text/css">
	.st0{fill:#EA8E76;}
	.st1{fill:#F6AB8E;}
	.st2{clip-path:url(#SVGID_2_);}
	.st3{fill:#64B5F6;}
	.st4{fill:#323E48;}
	.st5{fill:#25303B;}
	.st6{fill:#FFFFFF;}
	.st7{fill:#F5AA7C;}
	.st8{fill:#53606E;}
</style>
<path class="st0" d="M91.7,121.2l-30.8-8.6c0,0-19.9,4.8-25.2,6c-1.8,0.4-6.5,0.9-4.8,5.7c1.6,4.6,6.1,3.5,8.3,3.1
	c5.3-1.1,18.4-2.8,18.4-2.8l0.4,1.8c0,0-12.5,1.8-17.5,2.7c-1.8,0.3-6.4,1-4.9,5.9c1.9,6.4,7.5,4.7,9.7,4.4
	c5.7-0.7,20.1-2.5,20.1-2.5l0.3,0.8c0,0-13.5,1.3-19.1,2.1c-3.4,0.5-6.2,0.8-5.2,5.9c0.8,4,4.2,3.7,8.5,3.3c5.8-0.5,24.9-4,24.9-4
	L91.7,121.2z"/>
<path class="st1" d="M65.3,123.6l6.7,9.7l1.9-6.7L51.5,116c2.7-6.8,3.3-8.1,5.3-13.2l40.3,16.4l7.6,9.7L87.5,187
	c0,0-30.3-14.4-29.9-35.9c0.2-9.9-2.4-15.7-6.9-23.6C55.9,127.8,61,126.4,65.3,123.6z"/>
<g>
	<defs>
		
			<rect id="SVGID_1_" x="-11.3" y="26.7" transform="matrix(0.1736 -0.9848 0.9848 0.1736 -24.2168 94.4414)" width="111" height="70"/>
	</defs>
	<clipPath id="SVGID_2_">
		<use xlink:href="#SVGID_1_"  style="overflow:visible;"/>
	</clipPath>
	<g class="st2">
		<path class="st3" d="M32.6,109.3c0.1,0,0.1,0,0.2-0.2c0.1-0.3,0.2-0.6,0.2-0.9c0.1-0.3,0.1-0.6,0.1-0.9c0-0.1-0.1-0.2-0.1-0.2
			c-0.1,0-0.2,0-0.2,0.2c-0.1,0.3-0.2,0.6-0.2,0.9c-0.1,0.3-0.1,0.6-0.1,0.9C32.5,109.3,32.5,109.3,32.6,109.3z"/>
		<path class="st3" d="M71.4,30c0.3,0.2,0.5,0.3,0.8,0.5c0.3,0.1,0.7,0.2,1.1,0.3l0,0c0-0.1,0.1-0.3,0.1-0.5c0.1-0.4,0.2-1,0.3-1.5
			c0.1-0.3,0.1-0.7,0.2-1.2c0.1-0.4,0.1-0.8,0.2-1.3c-0.3-0.1-0.7-0.1-1-0.1c-0.3,0-0.6,0-1,0.1c-0.4,0.1-0.8,0.3-1.1,0.6
			c-0.3,0.3-0.5,0.7-0.5,1.1c-0.1,0.4,0,0.8,0.1,1.2C70.8,29.5,71.1,29.8,71.4,30z"/>
		<path class="st3" d="M48.4,107l-0.3,0.2l0.4,0.1L48.4,107z"/>
		<path class="st3" d="M47.4,106.8c0-0.2-0.2-0.2-0.2-0.2l-0.3,0l-0.1,0.3l0.3,0C47.4,107,47.4,106.8,47.4,106.8z"/>
		<path class="st3" d="M41.2,108.7c0,0-0.1,0-0.1,0c0,0-0.1,0-0.1,0.1c-0.1,0.2-0.1,0.4-0.1,0.5l0.5,0.1c0-0.2,0.1-0.4,0.1-0.5
			c0,0,0-0.1,0-0.1C41.2,108.7,41.2,108.7,41.2,108.7z"/>
		<path class="st3" d="M34.8,109.7C34.8,109.8,34.8,109.8,34.8,109.7c0.1,0,0.1,0,0.2,0c0.1,0,0.1-0.1,0.1-0.2c0-0.1,0-0.2,0.1-0.4
			c0-0.2,0.1-0.4,0.1-0.5c0-0.2,0.1-0.3,0.1-0.4c0-0.1,0-0.2,0-0.3c0-0.1,0-0.1,0-0.2c0,0,0,0-0.1-0.1c0,0-0.1,0-0.1,0c0,0,0,0,0,0
			c0,0-0.1,0-0.2,0l-0.4,2c0,0,0.1,0,0.1,0.1C34.7,109.7,34.7,109.7,34.8,109.7z"/>
		<path class="st3" d="M57,25.8c-0.4,0-0.8,0-1.2,0c-0.2,0-0.4,0.1-0.6,0.2c-0.1,0-0.1,0.1-0.2,0.2c-0.1,0.1-0.1,0.2-0.1,0.3
			c0,0.1,0,0.2,0,0.3c0,0.1,0.1,0.2,0.1,0.3c0.1,0.2,0.3,0.3,0.5,0.4c0.2,0.1,0.4,0.2,0.6,0.3c0.3,0.1,0.5,0.1,0.8,0.2
			c0.1,0,0.2,0,0.3,0.1c0.1,0,0.1,0,0.2,0c0-0.1,0-0.1,0-0.2c0-0.2,0.1-0.5,0.2-0.9l0.1-0.5c0-0.1,0.1-0.3,0.1-0.5
			C57.6,25.8,57.3,25.8,57,25.8z"/>
		<path class="st3" d="M51.1,107.4c0-0.2-0.2-0.2-0.2-0.2l-0.3,0l-0.1,0.3l0.2,0C51.1,107.6,51.1,107.4,51.1,107.4z"/>
		<path class="st3" d="M60.8,114.6c-0.1,0-0.3,0-0.4,0c-0.3-0.1-0.6-0.2-0.7-0.4c0-0.1-0.1-0.2-0.1-0.3c0-0.1,0-0.2,0-0.3
			c0.2-0.5,0.7-0.7,1.3-0.6c0.1,0,0.3,0.1,0.4,0.1l0.2-0.3c-0.2-0.1-0.3-0.1-0.5-0.1c-0.2-0.1-0.5-0.1-0.7,0c-0.2,0-0.5,0.1-0.7,0.3
			c0,0,0,0,0,0c0,0,0,0,0,0c0,0,0,0,0,0l0.2-0.5l-0.4-0.1l-0.8,1.5c-0.1-0.6-0.3-1.2-0.6-1.7l-0.5-0.1l-0.6,1.1
			c0.1,0.1,0.2,0.3,0.2,0.4c0,0,0,0,0,0c0,0,0,0,0,0c0,0,0,0,0,0c0,0,0.5-0.9,0.5-0.9c0.3,0.6,0.4,1.2,0.5,1.8l0.5,0.1l0.4-0.8
			c0,0,0,0,0,0c0,0,0,0,0,0c0,0.5,0.4,0.9,1.1,1.1c0.3,0.1,0.7,0.1,1,0l0.4-0.8l1,0.2l0.2-0.3l-1-0.2l0.3-0.5l1.2,0.2l0.2-0.3
			l-1.7-0.3L60.8,114.6z"/>
		<path class="st3" d="M56.3,112.8c-0.3-0.2-0.5-0.3-0.4-0.5c0.1-0.2,0.4-0.2,0.7-0.1c0.1,0,0.2,0.1,0.4,0.1l0.2-0.3
			c-0.1-0.1-0.3-0.1-0.4-0.1c-0.6-0.1-1.1-0.1-1.3,0.3c-0.2,0.4,0.2,0.7,0.5,0.9c0.3,0.2,0.5,0.4,0.4,0.5c-0.1,0.1-0.3,0.2-0.6,0.1
			c-0.3-0.1-0.6-0.2-0.8-0.4l-0.2,0.3c0.3,0.2,0.6,0.3,0.9,0.4c0.6,0.1,1.1,0,1.3-0.3C57.1,113.4,56.7,113.1,56.3,112.8z"/>
		<path class="st3" d="M80.7,27.8c-0.1-0.2-0.3-0.3-0.5-0.4c-0.2-0.1-0.4-0.2-0.6-0.2c-0.2,0-0.5-0.1-0.7,0
			c-0.2,0.1-0.4,0.1-0.6,0.3c-0.3,0.2-0.5,0.4-0.6,0.7c-0.2,0.3-0.3,0.6-0.4,1c-0.1,0.4-0.1,0.8,0,1.1c0.1,0.3,0.2,0.7,0.5,0.9
			c0.1,0.2,0.3,0.3,0.5,0.4c0.2,0.1,0.4,0.2,0.6,0.2c0.2,0,0.5,0,0.7,0c0.2,0,0.4-0.1,0.6-0.3c0.3-0.2,0.5-0.4,0.7-0.7
			c0.2-0.3,0.3-0.6,0.4-1c0.1-0.4,0.1-0.7,0-1.1C81.1,28.4,80.9,28.1,80.7,27.8z"/>
		<path class="st3" d="M84.2,12.4L47.2,5.8L27.9,115.1l37.1,6.5c1.1,0.2,2.2-0.1,3.1-0.7c0.9-0.6,1.5-1.6,1.7-2.7L87.6,17.1
			c0.2-1.1-0.1-2.2-0.7-3.1C86.2,13.2,85.3,12.6,84.2,12.4L84.2,12.4z M41.4,112.1l0,0.1l-9.8-1.7l0-0.1l2,0.4l0.7-3.8l0.6,0.1
			l0,0.2c0.1-0.1,0.2-0.1,0.3-0.1c0.1,0,0.2,0,0.3,0c0.1,0,0.2,0,0.2,0.1c0.1,0,0.1,0.1,0.2,0.2c0.1,0.2,0.1,0.4,0.1,0.6
			c0,0.1,0,0.2,0,0.3c0,0.1,0,0.3-0.1,0.4c0,0.2-0.1,0.3-0.1,0.4c0,0.1-0.1,0.3-0.1,0.4c0,0.2-0.2,0.4-0.3,0.5
			c-0.1,0.1-0.2,0.1-0.3,0.1c-0.1,0-0.2,0-0.3,0c-0.1,0-0.2,0-0.3-0.1c-0.1,0-0.1,0-0.1-0.1l-0.1,0.8l3,0.5l0.1-0.5l4,0.7
			L41.4,112.1z M31.8,108.1c0.1-0.5,0.2-0.9,0.4-1.1c0.1-0.1,0.2-0.2,0.4-0.2c0.1,0,0.3,0,0.4,0c0.4,0.1,0.6,0.2,0.7,0.5
			c0.1,0.3,0.1,0.7,0,1.2c-0.1,0.5-0.2,0.9-0.5,1.1c-0.1,0.1-0.2,0.2-0.4,0.2s-0.3,0-0.4,0c-0.1,0-0.3-0.1-0.4-0.2
			c-0.1-0.1-0.2-0.2-0.3-0.3C31.7,109,31.7,108.6,31.8,108.1z M37.8,107.6l-0.1,0.4l-0.5-0.1l-0.3,1.9c0,0,0,0.1,0,0.1
			c0,0,0,0.1,0,0.1c0.1,0.1,0.2,0.1,0.3,0.1l-0.1,0.4l-0.4-0.1c-0.1,0-0.2,0-0.3-0.1c-0.1,0-0.2-0.1-0.2-0.2
			c-0.1-0.1-0.1-0.2-0.1-0.3c0-0.1,0-0.2,0-0.3l0.3-1.9l-0.3-0.1l0.1-0.4l0.3,0.1l0.2-0.9l0.7,0.1l-0.2,0.9L37.8,107.6z M38.8,107.7
			l-0.5,3l-0.7-0.1l0.5-3L38.8,107.7z M38,107.4l0.1-0.7l0.7,0.1l-0.1,0.7L38,107.4z M39.5,110.5c0.1,0.1,0.1,0.1,0.2,0.1l-0.1,0.4
			l-0.5-0.1c-0.1,0-0.1,0-0.2-0.1c-0.1,0-0.1-0.1-0.2-0.2c-0.1-0.1-0.1-0.3-0.1-0.5l0.6-3.3l0.7,0.1l-0.6,3.3
			C39.4,110.4,39.4,110.4,39.5,110.5C39.4,110.5,39.5,110.5,39.5,110.5L39.5,110.5z M41.8,109.9l-1.1-0.2c-0.1,0.3-0.1,0.6-0.1,0.9
			c0,0.1,0,0.1,0,0.1c0,0,0.1,0.1,0.1,0.1c0,0,0.1,0,0.1,0c0,0,0.1,0,0.1,0c0.1-0.1,0.1-0.1,0.1-0.2l0.5,0.1c0,0.1,0,0.2-0.1,0.3
			c-0.1,0.1-0.1,0.2-0.2,0.2c-0.2,0.1-0.4,0.1-0.7,0.1c-0.1,0-0.3-0.1-0.4-0.2c-0.1-0.1-0.2-0.2-0.2-0.3c-0.1-0.3-0.1-0.7,0-1.2
			c0.1-0.5,0.2-0.9,0.5-1.1c0.1-0.1,0.2-0.2,0.4-0.2c0.1,0,0.3,0,0.4,0c0.1,0,0.2,0.1,0.3,0.1c0.1,0.1,0.2,0.2,0.2,0.3
			c0.1,0.2,0.1,0.5,0,1L41.8,109.9z M58.8,28.3c-0.1,0.7-0.2,0.8-0.2,0.9l0,0l0,0c0,0,0,0.1,0,0.1c0,0-0.1,0.1-0.1,0.1
			c0,0-0.1,0-0.1,0l-3.1-0.5l0,0l-1.5-0.3c-0.4-0.1-0.8-0.2-1.2-0.3c-0.4-0.1-0.7-0.3-1-0.6c-0.2-0.2-0.4-0.5-0.6-0.8
			c-0.1-0.3-0.1-0.5-0.1-0.8l0,0l0.1-0.6c0-0.2,0.1-0.6,0.2-1c0.1-0.4,0.1-0.8,0.2-1c0.1-0.5,0-0.8-0.1-1c-0.1-0.2-0.3-0.3-0.7-0.4
			c-0.3,0-0.6,0-1,0.1c-0.4,0.1-0.8,0.2-1.2,0.3c0,0.1-0.1,0.3-0.1,0.7c-0.1,0.5-0.2,0.9-0.2,1.3c-0.1,0.4-0.5,3-0.5,3.1L46,27.3
			l1.2-7l1.5,0.3l-0.1,0.6c0.4-0.2,0.9-0.3,1.4-0.4c0.4-0.1,0.8-0.1,1.1,0c0.3,0,0.5,0.1,0.8,0.3c0.2,0.1,0.4,0.3,0.6,0.6
			c0.3,0.5,0.4,1,0.3,1.7c-0.1,0.6-0.2,1-0.3,1.4c-0.1,0.4-0.1,0.7-0.2,1l-0.1,0.4c0,0.1,0,0.3,0.1,0.4c0.1,0.2,0.2,0.3,0.4,0.4
			c0.2,0.1,0.3,0.2,0.5,0.2c0.1,0,0.1,0,0.1,0c-0.1-0.3-0.1-0.6,0-0.8c0.1-0.4,0.3-0.9,0.7-1.1c0.4-0.3,0.8-0.5,1.3-0.6
			c0.4-0.1,0.8-0.1,1.2-0.1c0.5,0,1,0,1.5,0.1c0-0.2,0-0.4-0.1-0.6c-0.1-0.2-0.3-0.4-0.5-0.5c-0.2-0.1-0.4-0.2-0.6-0.3
			c-0.3-0.1-0.5-0.1-0.8-0.2c-0.2,0-0.4-0.1-0.5-0.1c-0.1,0-0.3,0-0.6-0.1l-0.3,0l0.4-1.3l0.2,0l0.4,0c0.2,0,0.5,0.1,0.8,0.1
			c0.5,0.1,1,0.2,1.4,0.4c0.4,0.2,0.7,0.4,1,0.8c0.2,0.3,0.4,0.7,0.5,1c0.1,0.4,0,0.9-0.1,1.6C59.1,26.7,58.9,27.6,58.8,28.3
			L58.8,28.3z M47.6,113.7c-0.2,0-0.4-0.1-0.6-0.2c-0.6-0.2-1.1-0.7-1.4-1.3s-0.4-1.2-0.3-1.9c0.1-0.3,0.2-0.6,0.3-0.9
			c0.3,0.1,0.5,0.3,0.7,0.5c-0.1,0.2-0.1,0.4-0.2,0.5c-0.1,0.5,0,1.1,0.3,1.6c0.3,0.5,0.8,0.8,1.3,0.9
			C47.7,113.2,47.7,113.4,47.6,113.7z M48.1,114.8l-0.4-0.1c-0.2-1.3,0.9-2.8,0.9-2.8s0.1-0.1,0-0.2c0,0,0,0-0.1,0
			c0,0-0.2-0.1-0.1-0.3c0.1-0.2-0.1-0.1-0.1-0.1c-0.2,0.1-0.2-0.1-0.2-0.1c0-0.1,0-0.2,0-0.2c0-0.1,0-0.1,0-0.1l-0.2-0.1
			c0,0-0.1,0-0.1-0.1c0,0,0-0.1,0-0.1l0-0.3c0,0,0,0,0-0.1c0,0,0,0,0,0c0,0,0,0,0,0c0,0,0,0-0.1,0c-0.1,0-0.3,0-0.3,0
			c-0.1,0-0.3,0-0.4-0.1c-0.2-0.1-0.4-0.3-0.6-0.5c-0.1-0.2-0.3-0.3-0.5-0.4c-0.6-0.3-1.3-0.2-1.3-0.2l0.1-0.4c0.5-0.1,1,0,1.4,0.2
			c0.3,0.1,0.6,0.4,0.8,0.6c0.1,0.1,0.2,0.2,0.3,0.3c0.1,0.1,0.3,0.1,0.4,0.1c0.2,0,0.4,0,0.5,0c0,0,0.1,0,0.1,0c0,0,0,0,0.1,0.1
			c0,0,0,0,0,0.1c0,0,0,0.1,0,0.1c0,0,0,0.2,0,0.3c0,0,0,0,0.1,0.1l0.1,0.1c0,0,0.1,0,0.1,0.1s0,0.1,0,0.1l-0.1,0.2
			c0,0,0.1,0,0.1-0.1c0,0,0.1,0,0.1,0c0,0,0.1,0,0.1,0.1c0,0,0,0.1,0,0.1c0,0,0,0.1,0,0.2c0,0,0,0.1,0.2,0.1c0.1,0,0.1,0,0.2,0.1
			c0.1,0.1,0,0.3,0,0.3c-0.3,0.4-0.5,0.8-0.7,1.2C48.5,113.1,48,114.1,48.1,114.8z M47.5,107.4l-0.3-0.1l-0.3-0.5l-0.1,0.4l-0.3,0
			l0.3-0.8l0.6,0.1c0,0,0.4,0.1,0.3,0.3c0,0,0,0.3-0.5,0.2L47.5,107.4z M48.6,113.8L48.6,113.8c0.1-0.3,0.2-0.6,0.3-0.9
			c0.3-0.1,0.7-0.4,0.9-0.7c0.2-0.3,0.4-0.6,0.5-1c0-0.3,0-0.5,0-0.8c-0.1-0.3-0.2-0.5-0.3-0.7c-0.2-0.2-0.4-0.4-0.6-0.6
			c-0.2-0.1-0.5-0.2-0.8-0.3c-0.3,0-0.6,0-0.8,0c-0.3,0.1-0.5,0.2-0.8,0.4c-0.2-0.2-0.4-0.4-0.7-0.5c0.3-0.3,0.7-0.5,1.1-0.6
			s0.9-0.1,1.3-0.1c0.7,0.1,1.3,0.5,1.8,1c0.4,0.5,0.7,1.2,0.7,1.9s-0.3,1.4-0.8,1.9C49.9,113.3,49.3,113.7,48.6,113.8L48.6,113.8z
			 M47.7,107.4l0.9-0.7l0.3,0.9l-0.3-0.1l-0.1-0.2l-0.5-0.1l-0.2,0.2L47.7,107.4z M49,106.9L49,106.9l1.2,0.1l0,0.1l-0.5-0.1
			l-0.3,0.7l-0.3,0l0.3-0.7L49,106.9z M50.2,107.9l0.3-0.8l0.6,0.1c0,0,0.4,0.1,0.3,0.3c0,0,0,0.3-0.5,0.2l-0.4-0.1l-0.1,0.3
			L50.2,107.9z M67.6,30.8C67.6,30.9,67.6,30.9,67.6,30.8c0,0.1-0.1,0.1-0.1,0.2s-0.1,0-0.1,0c0,0-0.1,0-0.1,0l-1.1-0.2
			c0,0-0.1,0-0.1,0c0,0,0,0-0.1-0.1c0,0,0-0.1,0-0.1c0,0,0-0.1,0-0.1l1-5.4L66.1,25c-0.7,1-1.4,2.1-2.1,3.2
			c-0.7,1.1-1.3,1.9-1.4,2.1L61.4,30c-0.1-0.3-0.3-1.1-0.6-2.3c-0.4-1.5-0.8-3-1.2-4.5l0-0.2l1.5-0.4l1.3,5.6l2.9-4.5
			c0,0,0.1-0.1,0.1-0.1s0.1,0,0.1,0l1.9,0.3l1.1,0.2c0,0,0.1,0,0.1,0c0,0,0,0,0.1,0.1c0,0,0,0.1,0,0.1s0,0.1,0,0.1L67.6,30.8z
			 M69,23C69,23,69,23,69,23c0,0.1-0.1,0.1-0.1,0.2c0,0-0.1,0-0.1,0c0,0-0.1,0-0.1,0L67.6,23c0,0-0.1,0-0.1,0c0,0,0,0-0.1-0.1
			c0,0,0-0.1,0-0.1c0,0,0-0.1,0-0.1l0.2-1c0-0.1,0-0.1,0.1-0.2c0.1,0,0.1-0.1,0.2,0l1.1,0.2c0,0,0.1,0,0.1,0c0,0,0,0,0.1,0.1
			c0,0,0,0.1,0,0.1c0,0,0,0.1,0,0.1L69,23z M69.9,26c0.5-0.4,1-0.8,1.6-0.9c0.5-0.1,1-0.2,1.5-0.2c0.6,0,1.2,0.1,1.8,0.2l0.8,0.1
			c0.1,0,0.1,0.1,0.1,0.1c0,0.1,0,0.1,0,0.2l-0.1,0.4c0,0.2-0.1,0.5-0.1,0.8c-0.1,0.8-0.3,1.5-0.4,2.2c-0.1,0.5-0.2,1-0.3,1.4
			c-0.1,0.5-0.2,0.9-0.2,1.4c-0.1,0.8-0.4,1.4-0.7,1.8c-0.4,0.4-0.8,0.7-1.4,0.9c-0.4,0.1-0.7,0.2-1.1,0.2c-0.5-0.4-0.9-0.8-1.3-1.3
			c0.1,0,0.3,0,0.4,0c0.4,0,0.7,0,1.1-0.1c0.5-0.1,0.9-0.3,1.1-0.5c0.2-0.2,0.3-0.5,0.4-0.8L73,32c-0.6-0.1-1.1-0.3-1.6-0.5
			c-0.5-0.2-1-0.5-1.4-0.9c-0.4-0.4-0.7-0.8-0.9-1.4c-0.2-0.5-0.2-1.1-0.1-1.6C69.2,27,69.5,26.5,69.9,26z M64.1,113.4
			c0,0-1.3,2.6-1.3,2.6c-0.1,0.1-0.1,0.1-0.2,0.1l-8.4-1.5c0,0,0,0-0.1,0c0,0,0,0,0,0c0,0,0,0,0-0.1c0,0,0,0,0-0.1l0.8-4.7
			c0-0.1,0.1-0.1,0.2-0.1c0.2,0,0.4,0.1,0.7,0.1c1.9,0.3,5.9,1.3,8.4,3.5c0,0,0,0,0,0c0,0,0,0,0,0.1
			C64.2,113.3,64.2,113.3,64.1,113.4C64.2,113.3,64.1,113.4,64.1,113.4z M82.1,31.5c-0.2,0.4-0.6,0.7-0.9,1
			c-0.4,0.3-0.8,0.4-1.3,0.5c-0.4,0.1-0.9,0.1-1.3,0c-0.4-0.1-0.8-0.2-1.2-0.4c-0.4-0.2-0.7-0.5-0.9-0.8c-0.3-0.4-0.5-0.9-0.6-1.3
			c-0.1-0.5-0.1-1,0-1.5c0.1-0.5,0.2-0.9,0.5-1.3c0.2-0.4,0.6-0.8,1-1c0.4-0.3,0.8-0.4,1.2-0.5c0.4-0.1,0.9-0.1,1.4,0
			c0.5,0.1,0.9,0.2,1.3,0.5c0.4,0.2,0.7,0.5,0.9,0.9c0.3,0.4,0.5,0.8,0.6,1.3c0.1,0.5,0.1,1,0,1.5C82.5,30.6,82.3,31.1,82.1,31.5
			L82.1,31.5z"/>
		<path class="st4" d="M17.2,84.5c1,0.2,2.1-0.2,2.3-1.3c0.2-1.2-0.7-1.9-1.8-2c-1.1-0.2-2.2,0.1-2.4,1.4
			C15.2,83.7,16.2,84.3,17.2,84.5z"/>
		<path class="st5" d="M23.4,1.6c-1.1-0.2-2.2,0.1-3.1,0.7C19.4,3,18.8,3.9,18.6,5L0.8,106.1c-0.2,1.1,0.1,2.2,0.7,3.1
			c0.6,0.9,1.6,1.5,2.7,1.7l23.8,4.2L47.2,5.8L23.4,1.6z M36.6,35.7c0,0.2-0.1,0.4-0.2,0.6c-0.1,0.2-0.2,0.3-0.3,0.5
			c-0.1,0.1-0.3,0.2-0.5,0.3c-0.2,0.1-0.4,0.1-0.6,0l0.1-0.6c0.1,0,0.3,0,0.4,0c0.1,0,0.2-0.1,0.3-0.2c0.1-0.1,0.1-0.2,0.2-0.3
			c0-0.1,0.1-0.2,0.1-0.4c0-0.1,0-0.2,0-0.3c0-0.1,0-0.2,0-0.3c0-0.1-0.1-0.2-0.1-0.3c-0.1-0.1-0.2-0.1-0.3-0.1c-0.1,0-0.2,0-0.2,0
			s-0.1,0.1-0.2,0.1c-0.1,0.1-0.2,0.3-0.3,0.4c-0.1,0.2-0.2,0.4-0.3,0.6c-0.1,0.2-0.2,0.4-0.3,0.6c-0.1,0.2-0.2,0.3-0.4,0.4
			c-0.2,0.1-0.4,0.1-0.6,0.1c-0.2,0-0.3-0.1-0.5-0.2c-0.1-0.1-0.2-0.3-0.3-0.4c-0.1-0.2-0.1-0.3-0.1-0.5c0-0.2,0-0.4,0-0.5
			c0-0.2,0.1-0.4,0.2-0.6c0.1-0.2,0.2-0.3,0.3-0.5c0.1-0.1,0.3-0.2,0.4-0.3c0.2-0.1,0.4-0.1,0.6,0l-0.1,0.6c-0.1,0-0.2,0-0.3,0
			c-0.1,0-0.2,0.1-0.2,0.2c-0.1,0.1-0.1,0.2-0.2,0.3c0,0.1-0.1,0.2-0.1,0.3c0,0.1,0,0.2,0,0.3c0,0.1,0,0.2,0,0.3
			c0,0.1,0.1,0.2,0.1,0.2c0.1,0.1,0.1,0.1,0.2,0.1c0.1,0,0.1,0,0.2,0s0.1,0,0.1-0.1c0.1-0.1,0.2-0.2,0.2-0.3
			c0.1-0.1,0.1-0.3,0.2-0.4c0.1-0.1,0.1-0.3,0.2-0.4c0.1-0.2,0.1-0.3,0.2-0.5c0.1-0.1,0.2-0.3,0.3-0.4c0.1-0.1,0.2-0.2,0.4-0.2
			c0.2-0.1,0.3-0.1,0.5,0c0.2,0,0.4,0.1,0.6,0.3c0.1,0.1,0.2,0.3,0.3,0.5c0.1,0.2,0.1,0.4,0.1,0.6C36.6,35.3,36.6,35.5,36.6,35.7z
			 M22.4,14.9c0.2-1,0.8-2,1.6-2.6c0.9-0.6,1.9-0.8,3-0.7l9.4,1.7c1,0.2,2,0.8,2.6,1.6c0.6,0.9,0.8,1.9,0.7,3l-1.7,9.4
			c-0.2,1-0.8,2-1.6,2.6c-0.9,0.6-1.9,0.8-3,0.7L24,28.9c-1-0.2-2-0.8-2.6-1.6c-0.6-0.9-0.8-1.9-0.7-3L22.4,14.9z M21.9,51.7
			l3.8,0.7l-0.4,2.3l-7-1.2l0.4-2.2l1,0.2l0,0c-0.6-0.5-0.9-1.6-0.8-2.4c0.4-2.3,2.1-2.2,3.1-2l4.5,0.8L26.1,50l-3.4-0.6
			c-1-0.2-1.9-0.4-2.1,0.8C20.4,51.1,21.1,51.6,21.9,51.7z M16.6,71l0.7-4l1.9,0.3l-0.7,4l3.7,0.7l-0.4,2.5l-9.6-1.7l1.2-7.1l2,0.4
			l-0.8,4.6L16.6,71z M20.1,64.1l3.5,0.6L23.1,67l-7-1.2l0.4-2.2l1.2,0.2l0,0c-0.8-0.5-1.2-1.4-1-2.3c0-0.2,0.1-0.4,0.2-0.5l2.1,0.4
			c-0.1,0.3-0.2,0.6-0.3,0.9C18.5,63.2,19.2,63.9,20.1,64.1L20.1,64.1z M13,80.3l0.2-0.9l7.6,1.3l-0.2,0.9l-0.7-0.1l0,0
			c0.6,0.4,0.7,1.1,0.6,1.9c-0.3,1.7-1.8,2.3-3.3,2c-1.5-0.3-2.7-1.3-2.4-3c0.1-0.6,0.5-1.3,1.2-1.6l0,0L13,80.3z M18,79.7
			c-1.6-0.3-2.7-1.6-2.4-3.1c0.3-1.9,2.3-2.2,3.6-1.9l-0.7,4.1c1,0.2,1.9-0.2,2.1-1.4c0.1-0.7-0.1-1.3-0.8-1.6l0.2-0.9
			c1.2,0.5,1.7,1.4,1.5,2.7C21.1,79.3,19.7,79.9,18,79.7L18,79.7z M17.3,100l-7-1.2l0.4-2.3l7,1.2L17.3,100z M17.9,96.6l-7.7-1.4
			l-0.3,1.4l-1.2,0.6l0.9,1L9.3,100l-1.7-1.9l0.4-2l1.9-0.9l-1.5-0.3l0.4-2.3l9.6,1.7L17.9,96.6z M14.9,93.1c-2.1-0.4-3.4-2.4-3-4.4
			c0.4-2.5,2.5-3.4,4.9-2.9l-0.9,5.1c1,0.1,1.7-0.3,1.9-1.3c0.1-0.5-0.1-1.1-0.5-1.4l0.4-2.1c1.5,0.7,2,2.3,1.7,3.9
			C18.9,92.2,17.2,93.5,14.9,93.1z M22,62c-2.3-0.4-1.7-2.8-1.7-4.5c0-0.4-0.1-0.6-0.5-0.7c-0.5-0.1-0.8,0.5-0.9,1
			c-0.1,0.6,0.1,1.1,0.7,1.3l-0.4,2.1c-0.9-0.2-1.4-0.7-1.7-1.4c-0.3-0.7-0.2-1.5-0.1-2.3c0.3-1.7,0.9-3.2,2.9-2.8l3.1,0.5
			c0.6,0.1,1.2,0.2,1.8,0l-0.4,2.3c-0.2,0-0.5,0-0.7,0c0.5,0.7,0.6,1.6,0.5,2.5C24.3,61.4,23.4,62.3,22,62z M23.2,46.6
			c-2.2-0.4-3.6-2.1-3.2-4.3c0.3-1.7,1.5-3.1,3.4-3L23,41.6c-0.6-0.1-1.1,0.4-1.2,0.9c-0.2,1.3,0.8,1.7,1.8,1.8
			c0.9,0.2,1.9-0.1,2.1-1c0.1-0.8-0.2-1.3-1-1.5l0.4-2.2c1.8,0.5,2.7,2.2,2.3,4C27.1,45.7,25.4,47,23.2,46.6z M24.4,39.3
			c-2.1-0.4-3.4-2.4-3-4.4c0.4-2.5,2.5-3.4,4.9-2.9l-0.9,5.1c1,0.1,1.7-0.3,1.9-1.3c0.1-0.5-0.1-1.1-0.5-1.4l0.4-2.1
			c1.5,0.7,2,2.3,1.7,3.9C28.4,38.4,26.7,39.7,24.4,39.3L24.4,39.3z M30.1,37.4l1,1.3l-0.1,0.5L30,38.2L30.1,37.4z M34.4,42.3
			c0.1,0,0.1,0,0.2,0c0,0,0.1,0,0.1-0.1c0,0,0.1-0.1,0.1-0.1c0-0.1,0-0.2,0.1-0.2l0.1-0.3l0.6,0.1l-0.1,0.5c0,0.1-0.1,0.3-0.1,0.4
			c0,0.1-0.1,0.2-0.2,0.3C35,43,34.9,43,34.8,43c-0.2,0-0.3,0-0.5,0l-2.5-0.4l-0.1,0.7l-0.6-0.1l0.1-0.7L30,42.3l0.1-0.6l1.2,0.2
			l0.1-0.8l0.6,0.1l-0.1,0.8L34.4,42.3z M29.1,45.6l0.1-0.6l5.4,1l-0.1,0.6L29.1,45.6z M34.4,47.6l-0.1,0.6l-3.9-0.7l0.1-0.6
			L34.4,47.6z M29.7,46.7l-0.1,0.6l-0.8-0.1l0.1-0.6L29.7,46.7z M29.4,44l0.1-0.6l0.8,0.1l-0.1,0.6L29.4,44z M30.9,44.3l0.1-0.6
			l3.9,0.7L34.8,45L30.9,44.3z M32.5,58.6l-2.6-0.5c-0.1,0-0.2,0-0.3,0c-0.1,0-0.2,0-0.3,0.1c-0.1,0-0.2,0.1-0.2,0.2
			c-0.1,0.1-0.1,0.2-0.1,0.4c0,0.1,0,0.3,0,0.4c0,0.1,0.1,0.3,0.2,0.4c0.1,0.1,0.2,0.2,0.3,0.3c0.1,0.1,0.2,0.1,0.4,0.1l2.5,0.4
			L32,61l-2.6-0.5c-0.1,0-0.2,0-0.4,0c-0.1,0-0.2,0-0.3,0.1c-0.1,0-0.2,0.1-0.2,0.2c-0.1,0.1-0.1,0.2-0.1,0.4c0,0.2,0,0.3,0,0.5
			c0,0.1,0.1,0.3,0.2,0.4c0.1,0.1,0.2,0.2,0.3,0.2c0.1,0,0.2,0.1,0.3,0.1l2.5,0.4l-0.1,0.6l-4-0.7l0.1-0.6l0.6,0.1l0,0
			c-0.3-0.3-0.4-0.6-0.5-1s0.1-0.7,0.3-1c0.1-0.1,0.2-0.2,0.3-0.2c0.1-0.1,0.2-0.1,0.3-0.1c-0.2-0.2-0.3-0.4-0.4-0.6
			c-0.1-0.2-0.1-0.5,0-0.7c0-0.2,0.1-0.4,0.2-0.5c0.1-0.1,0.2-0.3,0.3-0.4c0.1-0.1,0.3-0.2,0.4-0.2c0.2,0,0.4,0,0.5,0l2.9,0.5
			L32.5,58.6z M32.8,56.1c-0.1,0.2-0.3,0.4-0.5,0.5c-0.2,0.1-0.5,0.2-0.7,0.3c-0.3,0-0.6,0-0.8,0c-0.3,0-0.5-0.1-0.8-0.3
			c-0.2-0.1-0.4-0.3-0.6-0.5c-0.2-0.2-0.3-0.4-0.3-0.7c-0.1-0.6,0-1.2,0.3-1.7c0.1-0.2,0.3-0.4,0.5-0.5c0.2-0.1,0.5-0.2,0.7-0.3
			c0.3,0,0.6,0,0.8,0c0.3,0,0.5,0.1,0.8,0.3c0.2,0.1,0.4,0.3,0.6,0.5c0.2,0.2,0.3,0.4,0.3,0.7C33.2,55,33.1,55.6,32.8,56.1z
			 M33.8,51.1c0,0.1-0.1,0.2-0.2,0.3c-0.1,0.1-0.2,0.2-0.2,0.3c-0.1,0.1-0.2,0.2-0.3,0.2l0,0l0.5,0.1l-0.1,0.6l-5.4-1l0.1-0.6l2,0.4
			l0,0c-0.2-0.1-0.3-0.4-0.4-0.6c-0.1-0.3-0.1-0.5,0-0.8c0-0.3,0.1-0.5,0.3-0.8c0.1-0.2,0.3-0.4,0.6-0.5c0.2-0.1,0.5-0.2,0.7-0.2
			c0.3,0,0.5,0,0.8,0c0.3,0,0.5,0.1,0.8,0.3c0.2,0.1,0.4,0.3,0.6,0.4c0.2,0.2,0.3,0.4,0.3,0.6c0.1,0.3,0.1,0.5,0,0.8
			C33.9,50.9,33.9,51,33.8,51.1L33.8,51.1z M35.6,40.2c-0.1,0.2-0.3,0.4-0.5,0.5c-0.2,0.1-0.5,0.2-0.7,0.2c-0.3,0-0.6,0-0.9,0
			c-0.3,0-0.5-0.1-0.8-0.3c-0.2-0.1-0.4-0.3-0.6-0.5c-0.2-0.2-0.3-0.4-0.3-0.7c-0.1-0.3-0.1-0.5,0-0.8c0-0.3,0.2-0.6,0.4-0.8
			c0.2-0.2,0.4-0.4,0.7-0.5c0.2-0.1,0.5-0.2,0.8-0.2c0.3,0,0.5,0,0.8,0.1l-0.5,3c0.2,0,0.3,0,0.5,0c0.2,0,0.3-0.1,0.4-0.1
			c0.1-0.1,0.3-0.2,0.4-0.3c0.1-0.2,0.2-0.3,0.2-0.5c0.1-0.2,0-0.5-0.1-0.7c-0.1-0.2-0.3-0.4-0.5-0.4l0.1-0.7
			c0.4,0.1,0.7,0.4,0.9,0.7c0.2,0.4,0.2,0.8,0.1,1.2C35.9,39.7,35.8,40,35.6,40.2L35.6,40.2z"/>
		<path class="st4" d="M13.4,88.9c-0.1,0.8,0.3,1.4,1.2,1.7l0.5-2.8C14.3,87.7,13.6,88.1,13.4,88.9z"/>
		<path class="st4" d="M32.8,38.1c-0.1,0.1-0.2,0.2-0.3,0.3c-0.1,0.1-0.1,0.3-0.2,0.4c0,0.2,0,0.3,0,0.5c0,0.1,0.1,0.3,0.2,0.4
			c0.1,0.1,0.2,0.2,0.3,0.3c0.1,0.1,0.3,0.1,0.4,0.2l0.4-2.3c-0.2,0-0.3,0-0.5,0C33.1,38,32.9,38,32.8,38.1z"/>
		<path class="st4" d="M21.5,57.2c0.1,0.4,0.1,1,0.1,1.5c0,0.5,0.2,1,0.7,1.1c0.6,0.1,0.9-0.3,1-0.8C23.5,57.8,22.9,57.4,21.5,57.2z
			"/>
		<path class="st4" d="M22.9,35.2c-0.1,0.8,0.3,1.4,1.2,1.7l0.5-2.8C23.8,33.9,23,34.4,22.9,35.2z"/>
		<path class="st4" d="M32.3,54.3c-0.1-0.1-0.3-0.3-0.4-0.3c-0.4-0.2-0.8-0.3-1.3-0.2c-0.2,0-0.4,0.1-0.5,0.2
			c-0.1,0.1-0.3,0.2-0.4,0.3c-0.1,0.1-0.2,0.3-0.2,0.5c0,0.2,0,0.3,0,0.5c0,0.2,0.1,0.3,0.2,0.4c0.1,0.1,0.3,0.3,0.4,0.3
			c0.4,0.2,0.8,0.3,1.3,0.2c0.2,0,0.4-0.1,0.5-0.2c0.1-0.1,0.3-0.2,0.4-0.3c0.1-0.1,0.2-0.3,0.2-0.5c0-0.2,0-0.3,0-0.5
			C32.5,54.6,32.4,54.4,32.3,54.3z"/>
		<path class="st4" d="M16.4,76.8c-0.2,0.9,0.4,1.6,1.3,1.8l0.6-3.1C17.4,75.4,16.6,75.9,16.4,76.8z"/>
		<path class="st4" d="M33,49.7c-0.1-0.1-0.3-0.2-0.5-0.3c-0.2-0.1-0.4-0.1-0.6-0.2c-0.2,0-0.4,0-0.6,0c-0.2,0-0.3,0.1-0.5,0.1
			c-0.2,0.1-0.3,0.2-0.4,0.3c-0.1,0.2-0.2,0.3-0.2,0.5c0,0.2,0,0.4,0,0.6c0.1,0.2,0.2,0.3,0.3,0.4c0.1,0.1,0.3,0.2,0.4,0.3
			c0.2,0.1,0.4,0.1,0.5,0.2c0.2,0,0.4,0,0.6,0c0.2,0,0.4-0.1,0.5-0.1c0.2-0.1,0.3-0.2,0.4-0.3c0.1-0.2,0.2-0.4,0.2-0.6
			c0-0.2,0-0.4,0-0.6C33.3,50,33.2,49.8,33,49.7z"/>
		<path class="st6" d="M41.5,111.6l-4-0.7l-0.1,0.5l4,0.7L41.5,111.6z"/>
		<path class="st6" d="M37.4,111.4l-3-0.5l0,0l-0.7-0.1l0,0l-2-0.4l0,0.1l9.8,1.7l0-0.1L37.4,111.4L37.4,111.4z"/>
		<path class="st6" d="M41.4,112.1l-4-0.7l0,0.1L41.4,112.1L41.4,112.1z"/>
		<path class="st6" d="M32.5,109.8c0.1,0,0.3,0,0.4,0c0.1,0,0.3-0.1,0.4-0.2c0.2-0.2,0.4-0.6,0.5-1.1c0.1-0.5,0.1-0.9,0-1.2
			c-0.1-0.3-0.3-0.4-0.7-0.5c-0.1,0-0.3,0-0.4,0c-0.1,0-0.3,0.1-0.4,0.2c-0.2,0.2-0.4,0.6-0.4,1.1c-0.1,0.5-0.1,0.9,0,1.2
			c0.1,0.1,0.1,0.3,0.3,0.3C32.2,109.7,32.4,109.8,32.5,109.8z M32.8,107.4c0-0.1,0.1-0.2,0.2-0.2c0.1,0,0.1,0.1,0.1,0.2
			c0,0.3-0.1,0.6-0.1,0.9c0,0.3-0.1,0.6-0.2,0.9c-0.1,0.1-0.1,0.2-0.2,0.2c-0.1,0-0.1-0.1-0.1-0.2c0-0.3,0.1-0.6,0.1-0.9
			C32.6,107.9,32.7,107.7,32.8,107.4z"/>
		<path class="st6" d="M34.5,110.1c0,0,0.1,0.1,0.1,0.1c0.1,0,0.2,0.1,0.3,0.1c0.1,0,0.2,0,0.3,0c0.1,0,0.2-0.1,0.3-0.1
			c0.2-0.1,0.3-0.3,0.3-0.5c0-0.1,0.1-0.3,0.1-0.4c0-0.1,0.1-0.3,0.1-0.4s0.1-0.3,0.1-0.4c0-0.1,0-0.3,0-0.3c0-0.2,0-0.4-0.1-0.6
			c-0.1-0.1-0.1-0.1-0.2-0.2c-0.1,0-0.2-0.1-0.2-0.1c-0.1,0-0.2,0-0.3,0c-0.1,0-0.2,0-0.3,0.1l0-0.2l-0.6-0.1l-0.7,3.8l0.7,0.1
			L34.5,110.1z M34.9,107.6c0.1,0,0.2,0,0.2,0c0,0,0,0,0,0c0,0,0.1,0,0.1,0c0,0,0.1,0,0.1,0.1c0,0.1,0,0.1,0,0.2c0,0.1,0,0.2,0,0.3
			c0,0.1,0,0.3-0.1,0.4c0,0.1-0.1,0.3-0.1,0.5c0,0.2-0.1,0.3-0.1,0.4c0,0.1,0,0.1-0.1,0.2c0,0-0.1,0-0.1,0c0,0-0.1,0-0.1,0
			c0,0-0.1,0-0.1,0c0,0-0.1,0-0.1-0.1L34.9,107.6z"/>
		<path class="st6" d="M34.3,110.9l-0.7-0.1l0,0L34.3,110.9L34.3,110.9z"/>
		<path class="st6" d="M36.8,106.5l-0.2,0.9l-0.3-0.1l-0.1,0.4l0.3,0.1l-0.3,1.9c0,0.1,0,0.2,0,0.3c0,0.1,0,0.2,0.1,0.3
			c0.1,0.1,0.1,0.1,0.2,0.2c0.1,0,0.2,0.1,0.3,0.1l0.4,0.1l0.1-0.4c-0.1,0-0.2-0.1-0.3-0.1c0,0,0-0.1,0-0.1c0,0,0-0.1,0-0.1l0.3-1.9
			l0.5,0.1l0.1-0.4l-0.5-0.1l0.2-0.9L36.8,106.5z"/>
		<path class="st6" d="M38.9,106.9l-0.7-0.1l-0.1,0.7l0.7,0.1L38.9,106.9z"/>
		<path class="st6" d="M38.8,107.7l-0.7-0.1l-0.5,3l0.7,0.1L38.8,107.7z"/>
		<path class="st6" d="M39.3,106.9l-0.6,3.3c0,0.2,0,0.3,0.1,0.5c0,0.1,0.1,0.1,0.2,0.2c0.1,0,0.1,0.1,0.2,0.1l0.5,0.1l0.1-0.4
			c-0.1,0-0.2,0-0.2-0.1c0,0,0-0.1,0-0.1c0,0,0-0.1,0-0.1l0.6-3.3L39.3,106.9z"/>
		<path class="st6" d="M41.2,108.2c-0.1,0-0.3,0-0.4,0c-0.1,0-0.3,0.1-0.4,0.2c-0.2,0.2-0.4,0.6-0.5,1.1c-0.1,0.5-0.1,0.9,0,1.2
			c0.1,0.1,0.1,0.3,0.2,0.3c0.1,0.1,0.2,0.1,0.4,0.2c0.2,0.1,0.5,0,0.7-0.1c0.1-0.1,0.2-0.1,0.2-0.2c0.1-0.1,0.1-0.2,0.1-0.3
			l-0.5-0.1c0,0.1,0,0.2-0.1,0.2c0,0-0.1,0-0.1,0c0,0-0.1,0-0.1,0c-0.1,0-0.1,0-0.1-0.1c0,0,0-0.1,0-0.1c0-0.3,0-0.6,0.1-0.9
			l1.1,0.2l0.1-0.3c0.1-0.4,0.1-0.7,0-1c-0.1-0.1-0.1-0.2-0.2-0.3C41.5,108.2,41.4,108.2,41.2,108.2z M40.8,109.3
			c0-0.2,0.1-0.4,0.1-0.5c0,0,0-0.1,0.1-0.1c0,0,0.1,0,0.1,0c0,0,0.1,0,0.1,0.1c0,0,0,0.1,0,0.1c0,0.2,0,0.4-0.1,0.5L40.8,109.3z"/>
		<path class="st6" d="M64.1,113.1c-2.4-2.2-6.5-3.2-8.4-3.5c-0.3,0-0.5-0.1-0.7-0.1c-0.1,0-0.2,0-0.2,0.1l-0.8,4.7c0,0,0,0,0,0.1
			s0,0,0,0.1c0,0,0,0,0,0s0,0,0.1,0l8.4,1.5c0.1,0,0.1,0,0.2-0.1c0,0,1.3-2.5,1.3-2.6c0,0,0,0,0-0.1c0,0,0,0,0-0.1
			C64.2,113.2,64.2,113.2,64.1,113.1C64.1,113.2,64.1,113.2,64.1,113.1z M56.8,113.8c-0.2,0.3-0.7,0.4-1.3,0.3
			c-0.3-0.1-0.6-0.2-0.9-0.4l0.2-0.3c0.2,0.2,0.5,0.3,0.8,0.4c0.3,0.1,0.5,0,0.6-0.1c0.1-0.2-0.1-0.3-0.4-0.5
			c-0.4-0.2-0.7-0.5-0.5-0.9c0.2-0.3,0.7-0.4,1.3-0.3c0.1,0,0.3,0.1,0.4,0.1l-0.2,0.3c-0.1,0-0.2-0.1-0.4-0.1
			c-0.3-0.1-0.6,0-0.7,0.1c-0.1,0.1,0.1,0.3,0.4,0.5C56.7,113.1,57.1,113.4,56.8,113.8z M63.3,113.5l-1.2-0.2l-0.3,0.5l1,0.2
			l-0.2,0.3l-1-0.2l-0.4,0.8c-0.3,0.1-0.7,0.1-1,0c-0.7-0.1-1.1-0.5-1.1-1.1c0,0,0,0,0,0c0,0,0,0,0,0l-0.4,0.8l-0.5-0.1
			c-0.1-0.6-0.2-1.3-0.5-1.8c0,0-0.5,0.9-0.5,0.9c0,0,0,0,0,0c0,0,0,0,0,0c0,0,0,0,0,0c0-0.2-0.1-0.3-0.2-0.4l0.6-1.1l0.5,0.1
			c0.3,0.5,0.5,1.1,0.6,1.7l0.8-1.5l0.4,0.1l-0.2,0.5c0,0,0,0,0,0c0,0,0,0,0,0s0,0,0,0c0.2-0.1,0.4-0.2,0.7-0.3c0.2,0,0.5,0,0.7,0
			c0.2,0,0.3,0.1,0.5,0.1l-0.2,0.3c-0.1,0-0.3-0.1-0.4-0.1c-0.6-0.1-1.1,0.1-1.3,0.6c0,0.1,0,0.2,0,0.3c0,0.1,0,0.2,0.1,0.3
			c0.1,0.2,0.4,0.3,0.7,0.4c0.1,0,0.3,0,0.4,0l0.9-1.7l1.7,0.3L63.3,113.5z"/>
		<path class="st6" d="M48.7,108c-0.4-0.1-0.9-0.1-1.3,0.1c-0.4,0.1-0.8,0.3-1.1,0.6c0.3,0.1,0.5,0.3,0.7,0.5
			c0.2-0.2,0.5-0.3,0.8-0.4c0.3-0.1,0.6-0.1,0.8,0c0.3,0,0.5,0.1,0.8,0.3c0.2,0.1,0.4,0.3,0.6,0.6c0.2,0.2,0.3,0.5,0.3,0.7
			c0.1,0.3,0.1,0.5,0,0.8c-0.1,0.4-0.2,0.7-0.5,1c-0.2,0.3-0.5,0.5-0.9,0.7c-0.1,0.3-0.3,0.5-0.3,0.8l0,0c0.7-0.1,1.3-0.4,1.8-0.9
			c0.5-0.5,0.7-1.2,0.8-1.9c0-0.7-0.2-1.4-0.7-1.9C50,108.5,49.4,108.2,48.7,108z"/>
		<path class="st6" d="M50.9,107.7c0.5,0.1,0.5-0.2,0.5-0.2c0-0.2-0.3-0.3-0.3-0.3l-0.6-0.1l-0.3,0.8l0.3,0l0.1-0.3L50.9,107.7z
			 M50.7,107.2l0.3,0c0,0,0.2,0,0.2,0.2c0,0,0,0.2-0.3,0.2l-0.2,0L50.7,107.2z"/>
		<path class="st6" d="M48.5,107.4l0.1,0.2l0.3,0.1l-0.3-0.9l-0.9,0.7l0.1,0l0.2-0.2L48.5,107.4z M48.4,107l0.1,0.3l-0.4-0.1
			L48.4,107z"/>
		<path class="st6" d="M49.5,107.7l0.3-0.7l0.5,0.1l0-0.1l-1.2-0.2l0,0.1l0.4,0.1l-0.3,0.7L49.5,107.7z"/>
		<path class="st6" d="M47.7,106.8c0-0.2-0.3-0.3-0.3-0.3l-0.6-0.1l-0.3,0.8l0.3,0l0.1-0.4l0.1-0.3l0.3,0c0,0,0.2,0,0.2,0.2
			c0,0,0,0.2-0.3,0.2l-0.3,0l0.3,0.5l0.3,0.1l-0.3-0.4C47.7,107.1,47.7,106.8,47.7,106.8z"/>
		<path class="st6" d="M46.2,110.5c0-0.2,0.1-0.4,0.2-0.5c-0.2-0.2-0.4-0.4-0.7-0.5c-0.2,0.3-0.3,0.6-0.3,0.9
			c-0.1,0.6,0,1.3,0.3,1.8c0.3,0.6,0.8,1,1.4,1.3c0.2,0.1,0.4,0.1,0.6,0.2c0.1-0.3,0.2-0.5,0.3-0.7c-0.3,0-0.5-0.1-0.8-0.3
			c-0.2-0.1-0.4-0.3-0.6-0.6c-0.2-0.2-0.3-0.5-0.3-0.7C46.1,111.1,46.1,110.8,46.2,110.5z"/>
		<path class="st6" d="M49.1,111.9c0,0,0.1-0.2,0-0.3c0,0-0.1-0.1-0.2-0.1c-0.2-0.1-0.2-0.1-0.2-0.1c0-0.1,0-0.2,0-0.2
			c0,0,0-0.1,0-0.1c0,0,0-0.1-0.1-0.1c0,0-0.1,0-0.1,0c0,0-0.1,0-0.1,0.1l0.1-0.2c0,0,0-0.1,0-0.1c0,0,0-0.1-0.1-0.1l-0.1-0.1
			c-0.1,0-0.1-0.1-0.1-0.1c0-0.1,0-0.3,0-0.3c0,0,0-0.1,0-0.1c0,0,0-0.1,0-0.1c0,0,0,0-0.1-0.1c0,0-0.1,0-0.1,0c-0.2,0-0.3,0-0.5,0
			c-0.1,0-0.3-0.1-0.4-0.1c-0.1-0.1-0.2-0.2-0.3-0.3c-0.2-0.3-0.5-0.5-0.8-0.6c-0.4-0.2-0.9-0.3-1.4-0.2l-0.1,0.4
			c0,0,0.7-0.2,1.3,0.2c0.2,0.1,0.4,0.3,0.5,0.4c0.2,0.2,0.3,0.4,0.6,0.5c0.1,0.1,0.3,0.1,0.4,0.1c0,0,0.3,0,0.3,0c0,0,0,0,0.1,0
			c0,0,0,0,0,0c0,0,0,0,0,0c0,0,0,0,0,0.1l0,0.3c0,0,0,0.1,0,0.1c0,0,0.1,0.1,0.1,0.1l0.2,0.1c0,0,0,0,0,0.1c0,0,0,0.1,0,0.2
			c0,0,0,0.1,0.2,0.1c0,0,0.2-0.1,0.1,0.1c-0.1,0.2,0.1,0.3,0.1,0.3c0.1,0,0.1,0,0.1,0c0.1,0,0,0.2,0,0.2s-1.1,1.5-0.9,2.8l0.4,0.1
			c-0.1-0.8,0.3-1.7,0.3-1.7C48.7,112.7,48.9,112.3,49.1,111.9z"/>
		<path class="st6" d="M29.1,57.4c-0.1,0-0.3,0.1-0.4,0.2c-0.1,0.1-0.2,0.2-0.3,0.4c-0.1,0.2-0.1,0.3-0.2,0.5c0,0.2,0,0.5,0,0.7
			c0.1,0.2,0.2,0.4,0.4,0.6c-0.1,0-0.2,0-0.3,0.1c-0.1,0.1-0.2,0.1-0.3,0.2c-0.2,0.3-0.3,0.7-0.3,1s0.2,0.7,0.5,1l0,0l-0.6-0.1
			l-0.1,0.6l3.9,0.7l0.1-0.6l-2.5-0.4c-0.1,0-0.2-0.1-0.3-0.1c-0.1-0.1-0.2-0.1-0.3-0.2c-0.1-0.1-0.2-0.2-0.2-0.4
			c-0.1-0.2-0.1-0.3,0-0.5c0-0.1,0.1-0.2,0.1-0.4c0.1-0.1,0.1-0.1,0.2-0.2c0.1,0,0.2-0.1,0.3-0.1c0.1,0,0.2,0,0.4,0L32,61l0.1-0.6
			l-2.5-0.4c-0.1,0-0.3-0.1-0.4-0.1c-0.1-0.1-0.2-0.2-0.3-0.3c-0.1-0.1-0.1-0.2-0.2-0.4c0-0.1,0-0.3,0-0.4c0-0.1,0.1-0.3,0.1-0.4
			c0.1-0.1,0.1-0.2,0.2-0.2c0.1,0,0.2-0.1,0.3-0.1c0.1,0,0.2,0,0.3,0l2.6,0.5l0.1-0.6l-2.9-0.5C29.5,57.4,29.3,57.4,29.1,57.4z"/>
		<path class="st6" d="M32.8,53.8c-0.2-0.2-0.4-0.4-0.6-0.5c-0.2-0.1-0.5-0.2-0.8-0.3c-0.3-0.1-0.6-0.1-0.8,0
			c-0.3,0-0.5,0.1-0.7,0.3c-0.2,0.1-0.4,0.3-0.5,0.5c-0.3,0.5-0.4,1.1-0.3,1.7c0.1,0.2,0.2,0.5,0.3,0.7c0.2,0.2,0.4,0.4,0.6,0.5
			c0.2,0.1,0.5,0.2,0.8,0.3c0.3,0.1,0.6,0.1,0.8,0c0.3,0,0.5-0.1,0.7-0.3c0.2-0.1,0.4-0.3,0.5-0.5c0.3-0.5,0.4-1.1,0.3-1.7
			C33,54.2,32.9,54,32.8,53.8z M32.4,55.7c-0.1,0.1-0.2,0.3-0.4,0.3c-0.2,0.1-0.3,0.2-0.5,0.2c-0.4,0.1-0.9,0-1.3-0.2
			c-0.2-0.1-0.3-0.2-0.4-0.3c-0.1-0.1-0.2-0.3-0.2-0.4c0-0.2,0-0.3,0-0.5c0-0.2,0.1-0.3,0.2-0.5c0.1-0.1,0.2-0.3,0.4-0.3
			c0.2-0.1,0.3-0.2,0.5-0.2c0.4-0.1,0.9,0,1.3,0.2c0.2,0.1,0.3,0.2,0.4,0.3c0.1,0.1,0.2,0.3,0.2,0.4c0,0.2,0,0.3,0,0.5
			C32.5,55.4,32.5,55.5,32.4,55.7z"/>
		<path class="st6" d="M33.6,49.3c-0.2-0.2-0.4-0.3-0.6-0.4c-0.2-0.1-0.5-0.2-0.8-0.3c-0.3,0-0.5-0.1-0.8,0c-0.3,0-0.5,0.1-0.7,0.2
			c-0.2,0.1-0.4,0.3-0.6,0.5c-0.2,0.2-0.3,0.5-0.3,0.8c0,0.3,0,0.5,0,0.8c0.1,0.2,0.2,0.4,0.4,0.6l0,0l-2-0.4L28,51.7l5.4,1l0.1-0.6
			l-0.5-0.1l0,0c0.1,0,0.2-0.1,0.3-0.2c0.1-0.1,0.2-0.2,0.2-0.3c0.1-0.1,0.1-0.2,0.2-0.3c0-0.1,0.1-0.2,0.1-0.3c0.1-0.3,0-0.6,0-0.8
			C33.8,49.7,33.7,49.5,33.6,49.3z M33.1,51.3c-0.1,0.1-0.2,0.2-0.4,0.3c-0.2,0.1-0.3,0.1-0.5,0.1c-0.2,0-0.4,0-0.6,0
			c-0.2,0-0.4-0.1-0.5-0.2c-0.2-0.1-0.3-0.2-0.4-0.3c-0.1-0.1-0.2-0.3-0.3-0.4c-0.1-0.2-0.1-0.4,0-0.6c0-0.2,0.1-0.4,0.2-0.5
			c0.1-0.1,0.2-0.2,0.4-0.3c0.2-0.1,0.3-0.1,0.5-0.1c0.2,0,0.4,0,0.6,0c0.2,0,0.4,0.1,0.6,0.2c0.2,0.1,0.3,0.2,0.5,0.3
			c0.1,0.1,0.2,0.3,0.3,0.4c0.1,0.2,0.1,0.4,0,0.6C33.3,50.9,33.2,51.1,33.1,51.3z"/>
		<path class="st6" d="M34.4,47.6l-3.9-0.7l-0.1,0.6l3.9,0.7L34.4,47.6z"/>
		<path class="st6" d="M29.7,46.7l-0.8-0.1l-0.1,0.6l0.8,0.1L29.7,46.7z"/>
		<path class="st6" d="M34.7,45.9l-5.4-1l-0.1,0.6l5.4,1L34.7,45.9z"/>
		<path class="st6" d="M30.3,43.5l-0.8-0.1L29.4,44l0.8,0.1L30.3,43.5z"/>
		<path class="st6" d="M35,44.3L31,43.6l-0.1,0.6l3.9,0.7L35,44.3z"/>
		<path class="st6" d="M31.5,41l-0.1,0.8l-1.2-0.2L30,42.2l1.2,0.2l-0.1,0.7l0.6,0.1l0.1-0.7l2.5,0.4c0.1,0,0.3,0,0.5,0
			c0.1,0,0.2-0.1,0.3-0.1c0.1-0.1,0.1-0.2,0.2-0.3c0.1-0.1,0.1-0.3,0.1-0.4l0.1-0.5l-0.6-0.1l-0.1,0.3c0,0.1,0,0.2-0.1,0.2
			c0,0.1,0,0.1-0.1,0.1c0,0-0.1,0.1-0.1,0.1c-0.1,0-0.1,0-0.2,0l-2.4-0.4l0.1-0.8L31.5,41z"/>
		<path class="st6" d="M31.2,38.7l-1-1.3L30,38.2l1.1,1L31.2,38.7z"/>
		<path class="st6" d="M34.9,37.5l-0.1,0.6c0.2,0.1,0.4,0.2,0.5,0.4c0.1,0.2,0.1,0.5,0.1,0.7c0,0.2-0.1,0.4-0.2,0.5
			c-0.1,0.1-0.2,0.3-0.4,0.3c-0.1,0.1-0.3,0.1-0.4,0.1c-0.2,0-0.3,0-0.5,0l0.5-3c-0.3-0.1-0.5-0.1-0.8-0.1c-0.3,0-0.5,0.1-0.8,0.2
			c-0.2,0.1-0.5,0.3-0.7,0.5c-0.2,0.2-0.3,0.5-0.4,0.8c0,0.3,0,0.5,0,0.8c0.1,0.2,0.2,0.5,0.3,0.7c0.2,0.2,0.4,0.4,0.6,0.5
			c0.2,0.1,0.5,0.2,0.8,0.3c0.3,0,0.6,0,0.9,0c0.3,0,0.5-0.1,0.7-0.2c0.2-0.1,0.4-0.3,0.5-0.5c0.2-0.2,0.3-0.5,0.3-0.8
			c0.1-0.4,0-0.8-0.1-1.2C35.6,37.9,35.3,37.6,34.9,37.5z M33.3,40.2c-0.1,0-0.3-0.1-0.4-0.2c-0.1-0.1-0.2-0.2-0.3-0.3
			c-0.1-0.1-0.1-0.2-0.2-0.4c0-0.2,0-0.3,0-0.5c0-0.2,0.1-0.3,0.2-0.4c0.1-0.1,0.2-0.2,0.3-0.3c0.1-0.1,0.3-0.1,0.4-0.2
			c0.1,0,0.3,0,0.5,0L33.3,40.2z"/>
		<path class="st6" d="M36.2,34c-0.2-0.1-0.4-0.2-0.6-0.3c-0.2,0-0.3,0-0.5,0c-0.1,0.1-0.3,0.1-0.4,0.2c-0.1,0.1-0.2,0.2-0.3,0.4
			c-0.1,0.1-0.2,0.3-0.2,0.5c-0.1,0.1-0.1,0.3-0.2,0.4c-0.1,0.1-0.1,0.3-0.2,0.4c-0.1,0.1-0.1,0.2-0.2,0.3c0,0-0.1,0.1-0.1,0.1
			c-0.1,0-0.1,0-0.2,0c-0.1,0-0.2-0.1-0.2-0.1c-0.1-0.1-0.1-0.1-0.1-0.2c0-0.1,0-0.2,0-0.3c0-0.1,0-0.2,0-0.3c0-0.1,0-0.2,0.1-0.3
			c0-0.1,0.1-0.2,0.2-0.3c0.1-0.1,0.1-0.1,0.2-0.2c0.1,0,0.2-0.1,0.3,0l0.1-0.6c-0.2,0-0.4,0-0.6,0c-0.2,0.1-0.3,0.2-0.4,0.3
			c-0.1,0.1-0.2,0.3-0.3,0.5c-0.1,0.2-0.1,0.4-0.2,0.6c0,0.2,0,0.4,0,0.5c0,0.2,0,0.3,0.1,0.5c0.1,0.2,0.2,0.3,0.3,0.4
			c0.1,0.1,0.3,0.2,0.5,0.2c0.2,0.1,0.4,0,0.6-0.1c0.2-0.1,0.3-0.2,0.4-0.4c0.1-0.2,0.2-0.4,0.3-0.6c0.1-0.2,0.2-0.4,0.3-0.6
			c0.1-0.2,0.2-0.3,0.3-0.4c0.1-0.1,0.1-0.1,0.2-0.1s0.1,0,0.2,0c0.1,0,0.2,0.1,0.3,0.1c0.1,0.1,0.1,0.2,0.1,0.3c0,0.1,0,0.2,0,0.3
			c0,0.1,0,0.2,0,0.3c0,0.1-0.1,0.3-0.1,0.4c0,0.1-0.1,0.2-0.2,0.3c-0.1,0.1-0.2,0.2-0.3,0.2c-0.1,0-0.3,0.1-0.4,0L35,37.1
			c0.2,0,0.4,0,0.6,0c0.2-0.1,0.3-0.2,0.5-0.3c0.1-0.1,0.2-0.3,0.3-0.5c0.1-0.2,0.1-0.4,0.2-0.6c0-0.2,0.1-0.4,0-0.6
			c0-0.2,0-0.4-0.1-0.6C36.4,34.3,36.3,34.1,36.2,34z"/>
		<path class="st3" d="M17.7,97.7l-7-1.2l-0.4,2.3l7,1.2L17.7,97.7z"/>
		<path class="st3" d="M7.9,96.1l-0.4,2l1.7,1.9l0.3-1.7l-0.9-1l1.2-0.6l0.3-1.4l-0.4-0.1L7.9,96.1z"/>
		<path class="st3" d="M8.3,94.9l1.5,0.3l0.4-0.2l0,0.3l7.7,1.4l0.4-2.3l-9.6-1.7L8.3,94.9z"/>
		<path class="st3" d="M9.8,95.1l0.4,0.1l0-0.3L9.8,95.1z"/>
		<path class="st3" d="M17.6,86l-0.4,2.1c0.5,0.3,0.6,0.9,0.5,1.4c-0.2,1-0.9,1.4-1.9,1.3l0.9-5.1c-2.3-0.5-4.5,0.4-4.9,2.9
			c-0.4,2.1,0.9,4,3,4.4c2.3,0.4,4-0.9,4.4-3.2C19.6,88.3,19.1,86.7,17.6,86z M14.6,90.6c-0.8-0.3-1.3-0.9-1.2-1.7
			c0.1-0.8,0.9-1.2,1.7-1.1L14.6,90.6z"/>
		<path class="st3" d="M14.6,82.4c-0.3,1.7,0.9,2.7,2.4,3c1.5,0.3,3-0.3,3.3-2c0.1-0.8,0-1.5-0.6-1.9l0,0l0.7,0.1l0.2-0.9l-7.6-1.3
			L13,80.3l2.8,0.5l0,0C15.1,81.1,14.7,81.9,14.6,82.4z M17.8,81.1c1,0.2,2,0.8,1.8,2c-0.2,1.2-1.3,1.5-2.3,1.3
			c-1.1-0.2-2-0.8-1.8-2C15.6,81.2,16.7,80.9,17.8,81.1L17.8,81.1z"/>
		<path class="st3" d="M19.9,74.9l-0.2,0.9c0.7,0.3,0.9,0.9,0.8,1.6c-0.2,1.2-1.2,1.6-2.1,1.4l0.7-4.1c-1.3-0.3-3.2,0-3.6,1.9
			c-0.3,1.5,0.8,2.8,2.4,3.1c1.7,0.2,3-0.4,3.3-2.1C21.6,76.3,21.1,75.3,19.9,74.9z M17.7,78.6c-0.8-0.2-1.4-0.9-1.3-1.8
			c0.2-0.9,1-1.4,1.8-1.3L17.7,78.6z"/>
		<path class="st3" d="M13.4,65.7l-1.2,7.1l9.6,1.7l0.4-2.5l-3.7-0.7l0.7-4l-1.9-0.3l-0.7,4l-2-0.3l0.8-4.6L13.4,65.7z"/>
		<path class="st3" d="M16.9,60.8c-0.1,0.2-0.1,0.3-0.2,0.5c-0.2,1,0.2,1.8,1,2.3l0,0l-1.2-0.2l-0.4,2.2l7,1.2l0.4-2.3l-3.4-0.6
			c-0.9-0.2-1.6-0.9-1.4-2c0.1-0.3,0.2-0.6,0.3-0.9L16.9,60.8z"/>
		<path class="st3" d="M24.8,57.6l0.4-2.3c-0.6,0.2-1.2,0.1-1.8,0l-3.1-0.5c-2-0.3-2.6,1.2-2.9,2.8c-0.1,0.8-0.1,1.6,0.1,2.3
			c0.2,0.7,0.8,1.2,1.7,1.4l0.4-2.1c-0.6-0.2-0.8-0.7-0.7-1.3c0.1-0.5,0.4-1.1,0.9-1c0.4,0.1,0.5,0.3,0.5,0.7c0,1.6-0.6,4.1,1.7,4.5
			c1.4,0.3,2.3-0.7,2.5-2c0.1-0.8,0.1-1.8-0.5-2.5C24.3,57.6,24.5,57.6,24.8,57.6z M22.3,59.7c-0.5-0.1-0.7-0.6-0.7-1.1
			c0-0.5,0-1.1-0.1-1.5c1.4,0.2,2,0.7,1.8,1.8C23.2,59.4,22.9,59.8,22.3,59.7z"/>
		<path class="st3" d="M22.7,49.4l3.4,0.6l0.4-2.3L22,46.9c-1-0.2-2.7-0.3-3.1,2c-0.1,0.8,0.1,1.9,0.8,2.4l0,0l-1-0.2l-0.4,2.2
			l7,1.2l0.4-2.3l-3.8-0.7c-0.8-0.1-1.4-0.6-1.3-1.5C20.8,49,21.8,49.3,22.7,49.4z"/>
		<path class="st3" d="M25.1,39.6l-0.4,2.2c0.7,0.2,1.1,0.7,1,1.5c-0.2,1-1.2,1.2-2.1,1c-1-0.2-2-0.6-1.8-1.8c0.1-0.6,0.6-1,1.2-0.9
			l0.4-2.2c-1.9-0.2-3.1,1.2-3.4,3c-0.4,2.2,0.9,3.9,3.2,4.3c2.1,0.4,3.9-0.9,4.2-3C27.8,41.7,26.9,40.1,25.1,39.6z"/>
		<path class="st3" d="M27.1,32.2l-0.4,2.1c0.5,0.3,0.6,0.9,0.5,1.4c-0.2,1-0.9,1.4-1.9,1.3l0.9-5.1c-2.3-0.5-4.5,0.4-4.9,2.9
			c-0.4,2.1,0.9,4,3,4.4c2.3,0.4,4-0.9,4.4-3.2C29,34.6,28.6,33,27.1,32.2z M24.1,36.9c-0.8-0.3-1.3-0.9-1.2-1.7
			c0.1-0.8,0.9-1.2,1.7-1.1L24.1,36.9z"/>
		<path class="st3" d="M24,28.8l9.4,1.7c1,0.2,2.1-0.1,3-0.7c0.9-0.6,1.5-1.5,1.6-2.6l1.7-9.4c0.2-1-0.1-2.1-0.7-3s-1.5-1.5-2.6-1.6
			L27,11.6c-1-0.2-2.1,0.1-3,0.7c-0.9,0.6-1.5,1.5-1.6,2.6l-1.7,9.4c-0.2,1,0.1,2.1,0.7,3C22,28.1,22.9,28.7,24,28.8z M29.6,15.4
			c0.6-0.8,1.5-1.1,2.2-0.7c0.6,0.4,0.7,1.5,0.1,2.3c-0.6,0.8-1.5,1.1-2.2,0.7C29.1,17.3,29.1,16.2,29.6,15.4z M25.3,20.3
			c1.7-1.3,3.1-1.5,4.9-1.4c1.8,0,2.4,0.3,4.7-0.4c0.6-0.2,0.4,0.1,0,0.5c-1.7,1.3-3.1,1.5-4.9,1.4s-2.4-0.3-4.7,0.4
			C24.7,20.9,24.9,20.6,25.3,20.3z M24,26.3c1.2-1.2,2.3-2.2,3.5-3.3c1.5-1.4,3.5-2.2,4.6,0.2c1,2.2,2.2,4.5,2.5,5.2
			c0,0.1,0,0.2-0.1,0.2c-0.7-0.1-2.3-0.2-2.7-1.1c-0.6-1.2-1.2-2.5-1.8-3.6c-0.5-0.9-1.3-1.2-2-0.5c-0.8,0.8-2.1,2-2.6,2.5
			c-0.3,0.3-0.7,0.6-1.1,0.7C23.8,26.7,23.7,26.6,24,26.3L24,26.3z"/>
		<path class="st6" d="M29.8,17.7c0.6,0.4,1.6,0.1,2.2-0.7c0.6-0.8,0.5-1.8-0.1-2.3c-0.6-0.5-1.6-0.1-2.2,0.7
			C29.1,16.2,29.1,17.3,29.8,17.7z"/>
		<path class="st6" d="M24.2,26.6c0.4-0.2,0.8-0.4,1.1-0.7c0.5-0.5,1.8-1.7,2.6-2.5c0.7-0.7,1.6-0.5,2,0.5c0.5,1.1,1.2,2.4,1.8,3.6
			c0.4,0.8,2,1,2.7,1.1c0.1,0,0.2-0.1,0.1-0.2c-0.3-0.7-1.5-3-2.5-5.2c-1.1-2.3-3.1-1.6-4.6-0.2c-1.2,1.1-2.2,2.1-3.5,3.3
			C23.7,26.6,23.8,26.7,24.2,26.6z"/>
		<path class="st6" d="M25.3,20.7c2.3-0.7,2.9-0.5,4.7-0.4c1.8,0,3.2-0.1,4.9-1.4c0.4-0.3,0.7-0.6,0-0.5c-2.3,0.7-2.9,0.5-4.7,0.4
			c-1.8,0-3.2,0.1-4.9,1.4C24.9,20.6,24.7,20.9,25.3,20.7z"/>
		<path class="st6" d="M69,21.7l-1.1-0.2c-0.1,0-0.1,0-0.2,0c-0.1,0-0.1,0.1-0.1,0.2l-0.2,1c0,0,0,0.1,0,0.1c0,0,0,0.1,0,0.1
			c0,0,0,0,0.1,0.1c0,0,0.1,0,0.1,0l1.1,0.2c0,0,0.1,0,0.1,0c0,0,0.1,0,0.1,0s0,0,0.1-0.1c0,0,0-0.1,0-0.1l0.2-1c0,0,0-0.1,0-0.1
			c0,0,0-0.1,0-0.1C69.1,21.7,69.1,21.7,69,21.7C69.1,21.7,69,21.7,69,21.7z"/>
		<path class="st6" d="M68.6,24.1l-1.1-0.2l-1.9-0.3c0,0-0.1,0-0.1,0c0,0-0.1,0-0.1,0.1l-2.9,4.5l-1.3-5.6l-1.5,0.4l0,0.2
			c0.4,1.5,0.8,3,1.2,4.5c0.3,1.2,0.5,2.1,0.6,2.3l1.1,0.2c0.2-0.2,0.7-1,1.4-2.1c0.7-1.1,1.4-2.1,2.1-3.2l0.9,0.2l-1,5.5
			c0,0,0,0.1,0,0.1c0,0,0,0.1,0,0.1c0,0,0,0,0.1,0.1c0,0,0.1,0,0.1,0l1.1,0.2c0,0,0.1,0,0.1,0c0,0,0.1,0,0.1,0c0,0,0,0,0.1-0.1
			c0,0,0-0.1,0-0.1l1.1-6.5c0,0,0-0.1,0-0.1c0,0,0-0.1,0-0.1C68.7,24.2,68.7,24.1,68.6,24.1C68.6,24.1,68.6,24.1,68.6,24.1z"/>
		<path class="st6" d="M58.9,23.1c-0.3-0.3-0.6-0.6-1-0.8c-0.4-0.2-0.9-0.3-1.4-0.4c-0.3-0.1-0.6-0.1-0.8-0.1l-0.4,0l-0.2,0
			l-0.4,1.3l0.3,0c0.2,0,0.4,0,0.6,0.1c0.1,0,0.3,0,0.5,0.1c0.3,0,0.5,0.1,0.8,0.2c0.2,0.1,0.4,0.1,0.6,0.3c0.2,0.1,0.4,0.3,0.5,0.5
			c0.1,0.2,0.1,0.4,0.1,0.6c-0.5,0-1-0.1-1.5-0.1c-0.4,0-0.8,0-1.2,0.1c-0.5,0.1-0.9,0.3-1.3,0.6c-0.3,0.3-0.6,0.7-0.7,1.1
			c0,0.3,0,0.6,0,0.8c0,0-0.1,0-0.1,0c-0.2-0.1-0.4-0.1-0.5-0.2c-0.1-0.1-0.3-0.2-0.4-0.4c-0.1-0.1-0.1-0.3-0.1-0.4l0.1-0.4
			c0-0.3,0.1-0.6,0.2-1c0.1-0.4,0.2-0.9,0.3-1.4c0.1-0.6,0-1.2-0.3-1.7c-0.2-0.2-0.4-0.4-0.6-0.6c-0.2-0.1-0.5-0.2-0.8-0.3
			c-0.4-0.1-0.8,0-1.1,0c-0.5,0.1-0.9,0.2-1.4,0.4l0.1-0.6l-1.5-0.3l-1.2,7l1.4,0.3c0,0,0.5-2.7,0.5-3.1c0.1-0.4,0.1-0.8,0.2-1.3
			c0.1-0.3,0.1-0.5,0.1-0.7c0.4-0.1,0.8-0.3,1.2-0.3c0.3-0.1,0.6-0.1,1-0.1c0.4,0.1,0.6,0.2,0.7,0.4c0.1,0.2,0.1,0.5,0.1,1
			c0,0.2-0.1,0.5-0.2,1c-0.1,0.4-0.1,0.8-0.2,1l-0.1,0.6l0,0c0,0.3,0,0.6,0.1,0.8c0.1,0.3,0.3,0.6,0.6,0.8c0.3,0.2,0.6,0.4,1,0.6
			c0.4,0.2,0.8,0.3,1.2,0.3l1.5,0.3l0,0l3.1,0.5c0.1,0,0.1,0,0.1,0c0,0,0.1-0.1,0.1-0.1c0,0,0,0,0-0.1l0,0l0,0c0-0.1,0-0.2,0.2-0.9
			c0.1-0.7,0.3-1.6,0.5-2.7c0.1-0.7,0.1-1.2,0.1-1.6C59.3,23.7,59.1,23.4,58.9,23.1z M57.6,26.9c-0.1,0.4-0.1,0.7-0.2,0.9
			c0,0.1,0,0.1,0,0.2c-0.1,0-0.1,0-0.2,0c-0.1,0-0.2,0-0.3-0.1c-0.3,0-0.5-0.1-0.8-0.2c-0.2-0.1-0.4-0.1-0.6-0.3
			c-0.2-0.1-0.4-0.2-0.5-0.4c-0.1-0.1-0.1-0.2-0.1-0.3c0-0.1,0-0.2,0-0.3c0-0.1,0-0.2,0.1-0.3c0.1-0.1,0.1-0.1,0.2-0.2
			c0.2-0.1,0.4-0.2,0.6-0.2c0.4-0.1,0.8-0.1,1.2,0c0.3,0,0.6,0,0.8,0.1c0,0.2-0.1,0.3-0.1,0.5L57.6,26.9z"/>
		<path class="st6" d="M82,27.3c-0.2-0.4-0.6-0.7-0.9-0.9c-0.4-0.2-0.8-0.4-1.3-0.5c-0.5-0.1-0.9-0.1-1.4,0
			c-0.4,0.1-0.9,0.3-1.2,0.5c-0.4,0.3-0.7,0.6-1,1c-0.2,0.4-0.4,0.9-0.5,1.3c-0.1,0.5-0.1,1,0,1.5c0.1,0.5,0.3,0.9,0.6,1.3
			c0.3,0.3,0.6,0.6,0.9,0.8c0.4,0.2,0.8,0.4,1.2,0.4c0.4,0.1,0.9,0.1,1.3,0c0.4-0.1,0.9-0.3,1.3-0.5c0.4-0.3,0.7-0.6,0.9-1
			c0.3-0.4,0.5-0.9,0.5-1.4c0.1-0.5,0.1-1,0-1.5C82.5,28.2,82.3,27.7,82,27.3z M80.8,30.9c-0.2,0.3-0.4,0.5-0.7,0.7
			c-0.2,0.1-0.4,0.2-0.6,0.3c-0.2,0-0.5,0-0.7,0c-0.2,0-0.4-0.1-0.6-0.2c-0.2-0.1-0.3-0.2-0.5-0.4c-0.2-0.3-0.4-0.6-0.5-0.9
			c-0.1-0.4-0.1-0.8,0-1.1c0.1-0.3,0.2-0.7,0.4-1c0.2-0.3,0.4-0.5,0.6-0.7c0.2-0.1,0.4-0.2,0.6-0.3c0.2,0,0.5,0,0.7,0
			c0.2,0,0.4,0.1,0.6,0.2c0.2,0.1,0.3,0.2,0.5,0.4c0.2,0.3,0.4,0.6,0.4,1c0.1,0.4,0.1,0.7,0,1.1C81.1,30.2,80.9,30.6,80.8,30.9z"/>
		<path class="st6" d="M70,30.7c0.4,0.4,0.9,0.7,1.4,0.9c0.5,0.2,1.1,0.4,1.6,0.5l0.1,0c-0.1,0.3-0.2,0.6-0.4,0.8
			c-0.2,0.2-0.6,0.4-1.1,0.5c-0.4,0.1-0.7,0.1-1.1,0.1c-0.1,0-0.3,0-0.4,0c0.4,0.5,0.8,0.9,1.3,1.3c0.4,0,0.8-0.1,1.1-0.2
			c0.5-0.2,1-0.5,1.4-0.9c0.4-0.4,0.6-1,0.7-1.8c0.1-0.4,0.2-0.9,0.2-1.4c0.1-0.5,0.2-1,0.3-1.4c0.1-0.7,0.3-1.4,0.4-2.2
			c0.1-0.3,0.1-0.6,0.1-0.8l0.1-0.4c0-0.1,0-0.1,0-0.2c0-0.1-0.1-0.1-0.1-0.1l-0.8-0.1c-0.6-0.1-1.2-0.2-1.8-0.2
			c-0.5,0-1,0.1-1.5,0.2c-0.6,0.2-1.2,0.5-1.6,0.9c-0.5,0.4-0.8,1-0.9,1.7c-0.1,0.5-0.1,1.1,0.1,1.6C69.3,29.8,69.6,30.3,70,30.7
			L70,30.7z M71.1,26.9c0.3-0.3,0.7-0.5,1.1-0.6c0.3-0.1,0.6-0.1,1-0.1c0.3,0,0.7,0,1,0.1c-0.1,0.4-0.1,0.9-0.2,1.3
			c-0.1,0.5-0.2,0.9-0.2,1.2c-0.1,0.6-0.2,1.1-0.3,1.5c0,0.2-0.1,0.4-0.1,0.5l0,0c-0.4-0.1-0.7-0.2-1.1-0.3
			c-0.3-0.1-0.6-0.3-0.8-0.5c-0.3-0.2-0.6-0.5-0.7-0.9c-0.2-0.4-0.2-0.8-0.1-1.2C70.6,27.6,70.8,27.2,71.1,26.9z"/>
	</g>
</g>
<path class="st1" d="M60,116.7l11.9,16.9l-11.4,11.7c-1.2-2.4-9-15.7-10.7-18.4c-5.4-8.6-5.1-9.7,0.4-13.4
	C56,109.6,60,116.7,60,116.7z"/>
<g>
	<path class="st7" d="M51,123.8c0,0-0.1,0-0.1,0c-0.1-0.1-2.3-2.2-2.2-4.7c0-0.6,0.2-1.2,0.5-1.8s0.7-1,1.2-1.4
		c1.2-1,2.3-1.4,3.3-1.3c1.8,0.2,3,2,4.1,3.5c0.2,0.3,0.4,0.6,0.6,0.8c0,0,0,0.1,0,0.1c0,0,0,0.1-0.1,0.1c0,0-0.1,0-0.1,0
		c0,0-0.1,0-0.1,0c-0.2-0.3-0.4-0.5-0.6-0.8c-1.1-1.5-2.3-3.2-3.9-3.4c-1-0.1-2,0.3-3.1,1.2c-0.5,0.4-0.9,0.8-1.1,1.3
		c-0.3,0.5-0.4,1.1-0.5,1.7c-0.1,2.4,2.1,4.5,2.1,4.5c0,0,0,0,0,0c0,0,0,0,0,0c0,0,0,0,0,0.1C51.1,123.7,51.1,123.7,51,123.8
		C51.1,123.7,51.1,123.7,51,123.8C51,123.8,51,123.8,51,123.8z"/>
</g>
<g>
	<path class="st7" d="M59.8,134.7C59.7,134.7,59.7,134.7,59.8,134.7c-0.1,0-0.1,0-0.1-0.1c0,0,0,0,0,0s0,0,0-0.1c0,0,0,0,0,0
		c0,0,0,0,0,0l4.5-3.1c0,0,0,0,0,0c0,0,0,0,0.1,0c0,0,0,0,0,0c0,0,0,0,0,0c0,0,0,0.1,0,0.1c0,0,0,0.1-0.1,0.1L59.8,134.7
		C59.8,134.7,59.8,134.7,59.8,134.7z"/>
</g>
<g>
	<path class="st7" d="M61.6,135.1C61.6,135.1,61.6,135.1,61.6,135.1c-0.1,0-0.1,0-0.1-0.1c0,0,0,0,0,0c0,0,0,0,0-0.1c0,0,0,0,0,0
		c0,0,0,0,0,0l2.2-1.6c0,0,0,0,0,0c0,0,0,0,0.1,0c0,0,0,0,0,0c0,0,0,0,0,0c0,0,0,0.1,0,0.1c0,0,0,0.1-0.1,0.1L61.6,135.1
		C61.6,135.1,61.6,135.1,61.6,135.1z"/>
</g>
<path class="st1" d="M96.4,156.4l-9,30.8l18.4,7.9l8.9-33.9L96.4,156.4z"/>
<path class="st0" d="M100.3,157.4L93,189.6l12.6,5.5l8.9-34L100.3,157.4z"/>
<path class="st8" d="M167.8,215.1l-74.4-20.6l10.8-39l74.4,20.6L167.8,215.1z"/>
</svg>
